<?xml version="1.0" encoding="utf-8"?>
<!-- Generator: Adobe Illustrator 16.0.0, SVG Export Plug-In . SVG Version: 6.00 Build 0)  -->
<!DOCTYPE svg PUBLIC "-//W3C//DTD SVG 1.1//EN" "http://www.w3.org/Graphics/SVG/1.1/DTD/svg11.dtd">
<svg version="1.1" id="Layer_1" xmlns="http://www.w3.org/2000/svg" xmlns:xlink="http://www.w3.org/1999/xlink" x="0px" y="0px"
	 width="612px" height="792px" viewBox="0 0 612 792" enable-background="new 0 0 612 792" xml:space="preserve">
<g>
	<path fill-rule="evenodd" clip-rule="evenodd" fill="#FCCB40" d="M168.069,529.032c0,0-0.415-0.182-0.408-0.185
		c2.986-1.654,6.006-3.276,5.582-7.471l-0.054,0.068c4.555,0.454,6.512-3.308,9.053-5.843
		c39.66-39.563,79.253-79.195,118.846-118.828c2.629-2.632,5.758-4.95,6.392-9.016c14.288-8.733,24.328-21.953,35.68-33.786
		c13.737-13.408,27.488-26.801,41.202-40.231c3.274-3.207,6.508-6.94,11.664-4.794c4.772,1.986,5.433,6.568,6.188,11.231
		c10.996,67.965,22.058,135.918,33.347,203.835c1.024,6.169-0.418,9.555-6.002,12.631c-38.207,21.051-76.199,42.491-114.339,63.666
		c-8.705,4.832-17.813,5.837-26.911,0.727c-39.983-22.462-79.957-44.94-119.935-67.414
		C168.272,532.092,168.17,530.562,168.069,529.032z"/>
	<path fill-rule="evenodd" clip-rule="evenodd" fill="#FEC24D" d="M168.157,523.791c3.067-34.845,10.041-69.12,15.228-103.653
		c8.373-55.736,17.149-111.412,26.109-167.056c1.162-7.219-1.345-17.755,8.632-20.006c11.446-2.582,12.095,9.349,15.823,15.798
		c14.246,24.634,25.847,50.737,41.105,74.834c0.066,0.818,0.133,1.636,0.199,2.454c-2.503,3.686-5.403,7.165-7.453,11.088
		c-23.299,44.607-46.479,89.275-69.668,133.94c-8.619,16.601-18.947,32.354-24.944,50.255l0.054-0.068
		C171.547,522.182,169.853,522.986,168.157,523.791z"/>
	<path fill-rule="evenodd" clip-rule="evenodd" fill="#F3BD63" d="M275.253,326.162c-0.066-0.818-0.133-1.636-0.199-2.454
		c5.074-9.63,10.187-19.238,15.205-28.897c2.433-4.684,4.284-9.746,11.043-9.604c6.77,0.143,8.28,5.505,10.708,10.081
		c10.376,19.565,20.766,39.124,31.149,58.686c-11.352,11.833-21.392,25.053-35.684,33.785
		C296.732,367.225,285.994,346.693,275.253,326.162z"/>
	<path fill-rule="evenodd" clip-rule="evenodd" fill="#F58320" d="M168.157,523.791c1.696-0.805,3.39-1.609,5.086-2.414
		c0.425,4.194-2.596,5.816-5.582,7.471C167.822,527.164,167.99,525.478,168.157,523.791z"/>
	<path fill-rule="evenodd" clip-rule="evenodd" fill="#FEC24D" d="M168.069,529.032c0.101,1.53,0.203,3.06,0.303,4.591
		C166.397,532.218,165.607,530.733,168.069,529.032z"/>
	<path fill-rule="evenodd" clip-rule="evenodd" fill="#F58320" d="M275.253,326.162c10.74,20.532,21.479,41.063,32.222,61.596
		c-0.629,4.066-3.758,6.385-6.388,9.017c-39.593,39.633-79.186,79.265-118.846,118.828c-2.541,2.535-4.498,6.297-9.053,5.843
		c5.998-17.901,16.326-33.654,24.944-50.255c23.189-44.665,46.369-89.333,69.668-133.94
		C269.85,333.327,272.75,329.847,275.253,326.162z"/>
</g>
</svg>
