<?xml version="1.0" encoding="utf-8"?>
<!-- Generator: Adobe Illustrator 16.0.0, SVG Export Plug-In . SVG Version: 6.00 Build 0)  -->
<!DOCTYPE svg PUBLIC "-//W3C//DTD SVG 1.1//EN" "http://www.w3.org/Graphics/SVG/1.1/DTD/svg11.dtd">
<svg version="1.1" id="Layer_1" xmlns="http://www.w3.org/2000/svg" xmlns:xlink="http://www.w3.org/1999/xlink" x="0px" y="0px"
	 width="612px" height="792px" viewBox="0 0 612 792" enable-background="new 0 0 612 792" xml:space="preserve">
<g>
	<path fill-rule="evenodd" clip-rule="evenodd" fill="#567EBF" d="M448.038,208.833c8.384,5.644,14.692,13.409,21.018,21.065
		c16.203,19.614,27.813,41.728,34.87,66.18c0.719,2.491,2.273,3.938,4.153,5.351c30.05,22.595,48.496,52.441,53.544,89.65
		c5.536,40.812-5.504,77.203-33.157,107.994c-27.229,30.318-61.584,44.956-102.253,44.922c-33.634-0.028-67.268-0.106-100.902-0.162
		c-0.007-3.83-0.008-7.659-0.021-11.489c-0.077-23.64-0.157-47.279-0.237-70.919c1.992-0.083,3.985-0.237,5.978-0.239
		c32.832-0.024,65.666,0.207,98.495-0.114c27.142-0.266,49.599-22.019,50.526-48.217c1.019-28.74-19.165-52.346-47.031-54.669
		c-3.5-0.292-4.398-1.269-4.374-4.657c0.082-11.172-0.615-22.303-3.72-33.13c-6.096-21.255-17.295-39.144-34.927-52.77
		c1.309-1.485,2.544-3.043,3.938-4.444C411.958,245.054,430.001,226.946,448.038,208.833z"/>
	<path fill-rule="evenodd" clip-rule="evenodd" fill="#F9BC17" d="M141.701,516.752c-17.547-12.327-30.563-28.551-39.889-47.657
		c-28.824-59.059-11.359-128.491,41.812-167.206c1.197-0.871,2.299-1.873,3.444-2.813c1.168-0.627,2.377-1.19,3.5-1.89
		c30.318-18.868,63.137-24.312,98.095-18.305c1.288,0.339,2.569,0.706,3.865,1.01c29.873,7.018,54.445,22.504,74.12,46.015
		c2.421,2.893,2.062,4.297-0.447,6.767c-18.042,17.758-35.917,35.686-53.869,53.536c-0.881,0.875-1.531,2.146-3.169,2.292
		c-3.046-5.942-6.914-11.292-11.794-15.938c-15.668-14.917-40.396-18.03-59.813-7.427c-19.492,10.644-30.216,33.18-25.953,54.396
		c3.496,17.403,13.65,29.574,29.242,37.531c-1.217,1.343-2.381,2.738-3.657,4.021C178.7,479.648,160.199,498.199,141.701,516.752z"
		/>
	<path fill-rule="evenodd" clip-rule="evenodd" fill="#EA4536" d="M248.662,278.88c-34.957-6.007-67.775-0.562-98.094,18.306
		c-1.123,0.699-2.332,1.263-3.5,1.89c-2.521-1.122-0.815-2.802-0.418-4.133c10.049-33.677,28.316-62.225,54.529-85.504
		c37.112-32.961,80.747-48.89,130.312-47.229c44.287,1.484,83.237,17.232,116.546,46.623c-18.037,18.113-36.08,36.221-54.101,54.352
		c-1.394,1.401-2.629,2.959-3.938,4.445c-1.772-1.212-3.574-2.383-5.312-3.643C342.815,233.605,283.129,240.136,248.662,278.88z"/>
	<path fill-rule="evenodd" clip-rule="evenodd" fill="#37A852" d="M141.701,516.752c18.498-18.553,36.999-37.104,55.486-55.668
		c1.276-1.282,2.44-2.678,3.657-4.021c11.561,4.67,23.695,4.293,35.834,4.268c29.458-0.062,58.916,0.052,88.374,0.094
		c0.08,23.64,0.16,47.279,0.237,70.919c0.013,3.83,0.014,7.659,0.021,11.489c-37.281-0.04-74.585,0.694-111.837-0.379
		C186.929,542.69,162.923,532.925,141.701,516.752z"/>
</g>
</svg>
